<svg version="1.1" id="Layer_1" xmlns="http://www.w3.org/2000/svg" xmlns:xlink="http://www.w3.org/1999/xlink" x="0px" y="0px"
	 width="100%" viewBox="0 0 192 192" enable-background="new 0 0 192 192" xml:space="preserve">
<path fill="#000000" opacity="1.000000" stroke="none" 
	d="
M133.000000,193.000000 
	C89.861122,193.000000 47.222191,192.973083 4.583506,193.062653 
	C1.841305,193.068405 0.891875,192.811646 0.899003,189.587708 
	C1.035615,127.794952 1.025794,66.001770 0.917844,4.208904 
	C0.912857,1.354502 1.598127,0.924607 4.287112,0.928633 
	C66.080032,1.021163 127.873146,1.018403 189.666092,0.935715 
	C192.258057,0.932246 193.093506,1.207133 193.087952,4.162110 
	C192.971527,66.121506 192.979919,128.081207 193.070236,190.040680 
	C193.074020,192.634735 192.367752,193.071899 189.962799,193.058441 
	C171.142334,192.952911 152.321045,193.000000 133.000000,193.000000 
z"/>
<path fill="#FC6171" opacity="1.000000" stroke="none" 
	d="
M97.135262,58.000153 
	C86.752914,58.159065 80.787170,62.703194 77.734055,73.821754 
	C73.346878,89.798546 73.801239,105.960258 78.124573,121.886375 
	C80.140785,129.313599 87.507294,134.765656 94.237160,135.005051 
	C103.585037,135.337570 112.540245,134.849396 117.092880,124.630562 
	C117.356049,124.039864 117.802505,123.501961 117.940186,122.889267 
	C118.502861,120.385223 118.201553,116.490570 119.665405,115.660828 
	C121.965118,114.357285 125.432259,115.054703 128.406540,115.014015 
	C132.569977,114.957054 136.747208,115.197006 140.894760,114.934372 
	C143.849930,114.747246 144.307922,116.178986 143.989197,118.482979 
	C141.558243,136.055374 131.253159,149.923233 112.356606,153.772827 
	C99.827972,156.325134 86.992210,156.675369 74.858772,150.476822 
	C62.243797,144.032227 55.218464,133.170853 52.299438,120.144516 
	C48.390079,102.698784 48.214436,84.957893 54.020100,67.677834 
	C59.675419,50.845242 76.268684,37.552673 95.232697,37.834480 
	C107.464233,38.016235 119.064911,39.101887 128.998779,47.010838 
	C138.199127,54.335793 142.493851,64.259033 144.006699,75.635147 
	C144.343674,78.169029 143.483429,79.141167 140.767792,79.059608 
	C134.443878,78.869713 128.110260,78.974907 121.780914,79.014023 
	C120.118584,79.024300 118.960403,78.907539 118.966751,76.689209 
	C118.999481,65.247421 110.724464,57.022137 97.135262,58.000153 
z"/>
</svg>